<svg t="1658824899898" class="icon" viewBox="0 0 1200 1024" version="1.1" xmlns="http://www.w3.org/2000/svg" p-id="13965" width="128" height="128"><path d="M802.952533 341.265067C798.378667 166.229333 673.792 34.747733 512.136533 34.133333 350.208 34.747733 225.621333 166.229333 221.047467 341.1968a154.897067 154.897067 0 0 0-29.696 117.623467C140.629333 520.260267 107.861333 582.656 102.673067 654.7456c-1.6384 34.269867 4.096 70.2464 19.2512 90.862933 25.8048 35.157333 62.190933 25.668267 93.047466-6.485333 4.778667 9.079467 10.0352 18.363733 15.906134 27.8528-47.035733 32.904533-64.3072 95.163733-36.181334 141.312 23.210667 38.0928 70.519467 59.665067 133.666134 59.665067 87.927467 0 146.773333-19.182933 183.637333-51.2 37.819733 32.290133 96.324267 51.2 183.637333 51.2 63.146667 0 110.455467-21.572267 133.597867-59.5968 28.125867-46.216533 10.922667-108.475733-36.181333-141.380267 5.9392-9.557333 11.264-18.773333 15.9744-27.8528 30.856533 32.085333 67.242667 41.642667 93.047466 6.485333 15.223467-20.6848 20.957867-56.661333 19.319467-90.112-5.188267-72.840533-37.956267-135.304533-88.746667-196.608a154.965333 154.965333 0 0 0-29.696-117.623466z m49.152 343.586133a152.234667 152.234667 0 0 1-19.2512-32.426667l-39.1168-86.698666-24.917333 91.818666c-7.7824 28.740267-24.849067 63.488-53.998933 103.424l-30.446934 41.642667 50.176 11.741867c33.1776 7.7824 47.445333 40.277333 36.386134 58.504533-9.489067 15.5648-34.2016 26.8288-75.3664 26.8288-76.1856 0-119.466667-15.428267-142.336-37.6832a55.978667 55.978667 0 0 0-41.1648-16.042667 56.661333 56.661333 0 0 0-42.120534 16.861867c-22.1184 21.435733-65.3312 36.864-141.585066 36.864-41.096533 0-65.877333-11.264-75.298134-26.8288-11.0592-18.158933 3.208533-50.722133 36.386134-58.504533l50.176-11.741867-30.446934-41.642667c-29.149867-39.867733-46.216533-74.683733-53.998933-103.424l-24.917333-91.818666-39.1168 86.698666a152.1664 152.1664 0 0 1-19.2512 32.426667 157.4912 157.4912 0 0 1-1.092267-26.0096c4.164267-58.368 35.293867-113.322667 83.899733-169.096533l13.858134-15.9744-8.055467-19.524267c-6.144-14.9504-2.730667-54.340267 18.8416-76.049067l10.8544-10.922666-1.024-15.36c0-144.1792 97.006933-249.0368 222.958933-249.514667 125.610667 0.477867 222.685867 105.335467 222.685867 248.763733 0 1.092267-1.024 16.110933-1.024 16.110934l10.8544 10.922666c21.572267 21.7088 25.053867 61.166933 18.8416 75.9808l-8.123733 19.592534 13.9264 15.9744c48.469333 55.569067 79.598933 110.523733 83.899733 169.437866 0.4096 8.533333-0.136533 17.749333-1.092267 25.668267z" p-id="13966"></path></svg>