<svg t="1658824793303" class="icon" viewBox="0 0 1024 1024" version="1.1" xmlns="http://www.w3.org/2000/svg" p-id="12735" width="128" height="128"><path d="M831.936 768L192 768.192V378.304l302.816 192.704a32.096 32.096 0 0 0 34.4 0L832 378.304 831.936 768zM192 255.776L192.096 256 832 255.776v46.656l-320 203.616L192 302.432V255.776zM831.936 192H192.096A64 64 0 0 0 128 255.776v512.416C128 803.36 156.768 832 192.096 832h639.84A64 64 0 0 0 896 768.192V255.776A64 64 0 0 0 831.936 192z" p-id="12736"></path></svg>